<svg width="512" height="512" viewBox="0 0 512 512" xmlns="http://www.w3.org/2000/svg">
  <defs>
    <linearGradient id="grad1" x1="0%" y1="0%" x2="100%" y2="100%">
      <stop offset="0%" style="stop-color:#4a90e2;stop-opacity:1" />
      <stop offset="100%" style="stop-color:#357abd;stop-opacity:1" />
    </linearGradient>
  </defs>
  
  <!-- 배경 원 -->
  <circle cx="256" cy="256" r="240" fill="url(#grad1)" stroke="#2c5aa0" stroke-width="8"/>
  
  <!-- 문서 아이콘 -->
  <rect x="160" y="120" width="192" height="240" rx="12" fill="white" opacity="0.95"/>
  
  <!-- 문서 상단 라인들 -->
  <rect x="180" y="140" width="120" height="4" fill="#4a90e2" rx="2"/>
  <rect x="180" y="160" width="100" height="4" fill="#4a90e2" rx="2"/>
  <rect x="180" y="180" width="140" height="4" fill="#4a90e2" rx="2"/>
  
  <!-- 복사 아이콘 -->
  <rect x="200" y="220" width="80" height="60" rx="6" fill="#4a90e2" opacity="0.8"/>
  <rect x="210" y="230" width="60" height="40" rx="4" fill="white"/>
  
  <!-- 복사 화살표 -->
  <path d="M 240 250 L 250 240 L 250 260 Z" fill="#4a90e2"/>
  <path d="M 240 250 L 250 250 L 250 240 Z" fill="#4a90e2"/>
  
  <!-- 텍스트 라인들 -->
  <rect x="180" y="300" width="80" height="3" fill="#666" rx="1.5"/>
  <rect x="180" y="320" width="100" height="3" fill="#666" rx="1.5"/>
  <rect x="180" y="340" width="60" height="3" fill="#666" rx="1.5"/>
  
  <!-- 작은 아이콘들 -->
  <circle cx="320" cy="160" r="8" fill="#4a90e2"/>
  <circle cx="340" cy="180" r="6" fill="#4a90e2"/>
  <circle cx="320" cy="200" r="4" fill="#4a90e2"/>
</svg>
